# xmcd
# 
# Track frame offsets:
#     150
#     25627
#     43162
#     66830
#     89692
#     115710
#     138370
#     155615
#     173500
# 
# Disc length: 2612
# 
# Revision: 1
# Processed by: cddbd v1.5.2PL0 Copyright (c) Steve Scherf et al.
# Submitted via: BonkEnc v1.0.8
# 
DISCID=700a3209
DTITLE=Eddie Gomez - Power Play
DYEAR=1987
DGENRE=Contemporary Jazz
TTITLE0=Power Play
TTITLE1=Loco Motive
TTITLE2=Spanish Flower
TTITLE3=Mel
TTITLE4=Amethyst
TTITLE5=Mr. Go
TTITLE6=Very Early
TTITLE7=W. 110th St.
TTITLE8=Forever
EXTD=YEAR: 1988
EXTT0=
EXTT1=
EXTT2=
EXTT3=
EXTT4=
EXTT5=
EXTT6=
EXTT7=
EXTT8=
PLAYORDER=
